<svg width="15" height="15" viewBox="0 0 15 15" fill="none" xmlns="http://www.w3.org/2000/svg">
<path d="M7.5 10.625L10 8.125L9.125 7.25L8.125 8.21875V5.625H6.875V8.21875L5.875 7.25L5 8.125L7.5 10.625ZM3.75 13.75C3.40625 13.75 3.11188 13.6275 2.86688 13.3825C2.62188 13.1375 2.49958 12.8433 2.5 12.5V5L6.25 1.25H11.25C11.5938 1.25 11.8881 1.3725 12.1331 1.6175C12.3781 1.8625 12.5004 2.15667 12.5 2.5V12.5C12.5 12.8438 12.3775 13.1381 12.1325 13.3831C11.8875 13.6281 11.5933 13.7504 11.25 13.75H3.75Z" fill="white"/>
</svg>
